<svg height="48" width="48" viewBox="0 0 512 512" xmlns="http://www.w3.org/2000/svg">
  <g transform="matrix(-0.77,-0.48,-0.41,0.66,588,209)">
    
    <path d="m510.865,250.469c-1.172,-18.937-3.234,-34.42-6.14,-46.029-2.891,-11.531-8.265,-27.264-21.624,-30.639-6.125,-1.562-12.484,-2.344-18.921,-2.344-11.843,0-20.015,2.656-20.905,2.953-1.953,0.656-3.672,1.859-4.938,3.469-0.141,0.172-14.483,17.468-36.17,17.952-20.514,0.453-36.092,-10.921-41.748,-15.733-2.796,-15.39-13.842,-39.404-40.763,-42.326-0.5,-0.047-1.016,-0.078-1.531,-0.078-9.312,0-28.796,10.531-82.121,40.623-22.14,12.483-45.029,25.405-64.465,35.482-28.187,14.608-36.732,16.64-39.092,16.843-27.515,2.312-97.776,16.046-105.808,18.733C13.749,253.656 0,264.655 0,282.654c0,16.265 5.733,29.249 5.983,29.779 0.75,1.703 1.938,3.172 3.438,4.266 1.969,1.422 48.576,35.061 101.823,42.92 17.687,2.609 119.728,4.438 200.24,4.438 46.278,0 127.352,-0.578 150.351,-4.469 41.436,-7 49.216,-42.623 49.528,-44.139 0.109,-0.562 0.172,-1.141 0.203,-1.719 0.049,-1.265 1.236,-31.591 -0.701,-63.261z" fill="#D4AF37"></path>
    
    
    <g fill="#434A54">
      <polygon points="234.817,332.481 214.552,339.136 175.132,219.221 195.397,212.565"></polygon>
      <polygon points="275.69,332.481 255.425,339.136 216.021,219.221 236.286,212.565"></polygon>
      <polygon points="316.563,332.419 296.345,339.199 251.644,206.081 271.879,199.285"></polygon>
      <path d="m469.993,369.667h-20.437c-5.891,0-10.672,-4.766-10.672,-10.656 0,-5.89 4.781,-10.671 10.672,-10.671h20.437c5.89,0 10.671,4.78 10.671,10.671 0,5.891-4.782,10.656-10.671,10.656z"></path>
      <path d="m408.668,373.292h-20.437c-5.89,0-10.671,-4.781-10.671,-10.672 0,-5.891 4.781,-10.656 10.671,-10.656h20.437c5.891,0 10.672,4.766 10.672,10.656 0,5.89-4.782,10.672-10.672,10.672z"></path>
      <path d="m122.464,370.682h-20.437c-5.89,0-10.671,-4.766-10.671,-10.656 0,-5.906 4.781,-10.671 10.671,-10.671h20.437c5.891,0 10.672,4.765 10.672,10.671-0.001,5.891-4.782,10.656-10.672,10.656z"></path>
      <path d="M61.138,349.011H40.687c-5.891,0-10.656,-4.766-10.656,-10.656 0,-5.89 4.766,-10.671 10.656,-10.671h20.451c5.891,0 10.656,4.781 10.656,10.671 0.001,5.891-4.765,10.656-10.656,10.656z"></path>
      <path d="m183.789,374.276h-20.437c-5.891,0-10.671,-4.781-10.671,-10.672 0,-5.891 4.78,-10.656 10.671,-10.656h20.437c5.891,0 10.671,4.766 10.671,10.656 0,5.89-4.781,10.672-10.671,10.672z"></path>
    </g>
    
    
    <path d="m507.99,325.137c0,0-112.338,-0.422-262.86,-0.422-47.436,0-102.308,0.141-126.791,-3.031C70.591,315.497 0.986,282.171 0.017,281.717c0,0.312-0.016,0.625-0.016,0.938 0,16.265 5.733,29.249 5.983,29.779 0.75,1.703 1.938,3.172 3.438,4.266 1.969,1.422 48.576,35.061 101.823,42.92 17.687,2.609 119.728,4.438 200.24,4.438 46.278,0 127.352,-0.578 150.351,-4.469 28.328,-4.782 40.921,-22.953 46.154,-34.452z" fill="#E6E9ED"></path>
    
    
    <path d="m319.657,137.772c-0.5,-0.047-1.016,-0.078-1.531,-0.078-9.312,0-28.796,10.531-82.121,40.623-22.14,12.483-45.029,25.405-64.465,35.482-28.187,14.608-36.732,16.64-39.092,16.843 123.54,0 227.972,-50.544 227.972,-50.544-2.796,-15.39-13.842,-39.404-40.763,-42.326z" fill="#B8860B"></path>
  </g>
</svg>
